<mxfile host="65bd71144e">
    <diagram id="vQG2rVUmP_15jDssrkWm" name="Page-1">
        <mxGraphModel dx="767" dy="472" grid="1" gridSize="10" guides="1" tooltips="1" connect="1" arrows="1" fold="1" page="1" pageScale="1" pageWidth="850" pageHeight="1100" math="0" shadow="0">
            <root>
                <mxCell id="0"/>
                <mxCell id="1" parent="0"/>
                <mxCell id="34" value="" style="rounded=0;whiteSpace=wrap;html=1;" parent="1" vertex="1">
                    <mxGeometry x="130" y="40" width="490" height="230" as="geometry"/>
                </mxCell>
                <mxCell id="58" style="edgeStyle=none;html=1;entryX=0.247;entryY=1.077;entryDx=0;entryDy=0;startArrow=none;startFill=0;endArrow=block;endFill=0;entryPerimeter=0;" parent="1" source="38" target="62" edge="1">
                    <mxGeometry relative="1" as="geometry">
                        <mxPoint x="417.5" y="120" as="targetPoint"/>
                    </mxGeometry>
                </mxCell>
                <mxCell id="38" value="マンション" style="swimlane;fontStyle=0;childLayout=stackLayout;horizontal=1;startSize=26;fillColor=none;horizontalStack=0;resizeParent=1;resizeParentMax=0;resizeLast=0;collapsible=0;marginBottom=0;swimlaneLine=1;strokeColor=default;connectable=1;allowArrows=1;" parent="1" vertex="1">
                    <mxGeometry x="320" y="190" width="80" height="52" as="geometry">
                        <mxRectangle x="390" y="120" width="80" height="26" as="alternateBounds"/>
                    </mxGeometry>
                </mxCell>
                <mxCell id="46" value="部屋番号" style="text;strokeColor=none;fillColor=none;align=left;verticalAlign=top;spacingLeft=4;spacingRight=4;overflow=hidden;rotatable=0;points=[[0,0.5],[1,0.5]];portConstraint=eastwest;" parent="38" vertex="1">
                    <mxGeometry y="26" width="80" height="26" as="geometry"/>
                </mxCell>
                <mxCell id="59" style="edgeStyle=none;html=1;exitX=0.5;exitY=0;exitDx=0;exitDy=0;entryX=0.753;entryY=1.115;entryDx=0;entryDy=0;startArrow=none;startFill=0;endArrow=block;endFill=0;entryPerimeter=0;" parent="1" source="47" target="62" edge="1">
                    <mxGeometry relative="1" as="geometry">
                        <mxPoint x="472.5" y="120" as="targetPoint"/>
                    </mxGeometry>
                </mxCell>
                <mxCell id="47" value="戸建" style="swimlane;fontStyle=0;childLayout=stackLayout;horizontal=1;startSize=26;fillColor=none;horizontalStack=0;resizeParent=1;resizeParentMax=0;resizeLast=0;collapsible=0;marginBottom=0;swimlaneLine=1;strokeColor=default;connectable=1;allowArrows=1;" parent="1" vertex="1">
                    <mxGeometry x="510" y="190" width="70" height="52" as="geometry">
                        <mxRectangle x="390" y="120" width="80" height="26" as="alternateBounds"/>
                    </mxGeometry>
                </mxCell>
                <mxCell id="60" value="物件" style="swimlane;fontStyle=0;childLayout=stackLayout;horizontal=1;startSize=26;fillColor=none;horizontalStack=0;resizeParent=1;resizeParentMax=0;resizeLast=0;collapsible=0;marginBottom=0;swimlaneLine=1;strokeColor=default;connectable=1;allowArrows=1;" vertex="1" parent="1">
                    <mxGeometry x="410" y="60" width="90" height="78" as="geometry">
                        <mxRectangle x="390" y="120" width="80" height="26" as="alternateBounds"/>
                    </mxGeometry>
                </mxCell>
                <mxCell id="61" value="所在地" style="text;strokeColor=none;fillColor=none;align=left;verticalAlign=top;spacingLeft=4;spacingRight=4;overflow=hidden;rotatable=0;points=[[0,0.5],[1,0.5]];portConstraint=eastwest;" vertex="1" parent="60">
                    <mxGeometry y="26" width="90" height="26" as="geometry"/>
                </mxCell>
                <mxCell id="62" value="販売価格" style="text;strokeColor=none;fillColor=none;align=left;verticalAlign=top;spacingLeft=4;spacingRight=4;overflow=hidden;rotatable=0;points=[[0,0.5],[1,0.5]];portConstraint=eastwest;" vertex="1" parent="60">
                    <mxGeometry y="52" width="90" height="26" as="geometry"/>
                </mxCell>
                <mxCell id="66" style="edgeStyle=none;html=1;entryX=-0.012;entryY=0.038;entryDx=0;entryDy=0;entryPerimeter=0;startArrow=oval;startFill=0;endArrow=ERzeroToMany;endFill=0;" edge="1" parent="1" source="64" target="46">
                    <mxGeometry relative="1" as="geometry"/>
                </mxCell>
                <mxCell id="64" value="棟" style="swimlane;fontStyle=0;childLayout=stackLayout;horizontal=1;startSize=26;fillColor=none;horizontalStack=0;resizeParent=1;resizeParentMax=0;resizeLast=0;collapsible=0;marginBottom=0;swimlaneLine=1;strokeColor=default;connectable=1;allowArrows=1;" vertex="1" parent="1">
                    <mxGeometry x="180" y="190" width="50" height="52" as="geometry">
                        <mxRectangle x="390" y="120" width="80" height="26" as="alternateBounds"/>
                    </mxGeometry>
                </mxCell>
                <mxCell id="65" value="名称" style="text;strokeColor=none;fillColor=none;align=left;verticalAlign=top;spacingLeft=4;spacingRight=4;overflow=hidden;rotatable=0;points=[[0,0.5],[1,0.5]];portConstraint=eastwest;" vertex="1" parent="64">
                    <mxGeometry y="26" width="50" height="26" as="geometry"/>
                </mxCell>
            </root>
        </mxGraphModel>
    </diagram>
</mxfile>